<svg width="37" height="60" viewBox="0 0 37 60" fill="none" xmlns="http://www.w3.org/2000/svg">
<path d="M18.8905 0.00012384C18.4945 0.0215643 18.1138 0.160251 17.7968 0.398561L1.8671 12.3517L1.79679 12.3986C1.76749 12.4212 1.73884 12.4446 1.71085 12.4689C1.65901 12.5132 1.60946 12.5601 1.56241 12.6095C1.52141 12.652 1.48231 12.6963 1.44522 12.7423C1.43735 12.7501 1.42953 12.7579 1.42179 12.7657C1.34367 12.8683 1.27565 12.9782 1.21866 13.0939C1.20196 13.1299 1.18632 13.1663 1.17179 13.2032C1.1523 13.2417 1.13406 13.2808 1.1171 13.3204C1.11175 13.3334 1.10654 13.3464 1.10147 13.3595C1.09002 13.3957 1.0796 13.4321 1.07022 13.4689C1.05397 13.5333 1.04093 13.5985 1.03116 13.6642C1.02015 13.7289 1.01233 13.7941 1.00772 13.8595C1.0045 13.8881 1.0019 13.9167 0.999911 13.9454C0.999661 13.9637 0.999661 13.9819 0.999911 14.0001C0.998077 14.0496 0.998077 14.0991 0.999911 14.1486V42.0001V44.0001V52.0001H4.99991V47.6095L8.99991 50.1095V56.0001H12.9999V52.6095L16.9999 55.1095V60.0001H20.9999V55.1095L24.9999 52.6095V56.0001H28.9999V50.1095L32.9999 47.6095V52.0001H36.9999V44.0236C37 44.0157 37 44.0079 36.9999 44.0001V42.0001V14.0314C37 14.021 37 14.0105 36.9999 14.0001C36.9998 13.9427 36.9972 13.8854 36.9921 13.8282C36.9922 13.8178 36.9922 13.8074 36.9921 13.797C36.9866 13.742 36.9787 13.6873 36.9687 13.6329C36.9661 13.6225 36.9635 13.6121 36.9608 13.6017C36.9501 13.5465 36.9371 13.4917 36.9218 13.4376C36.9193 13.4272 36.9167 13.4168 36.914 13.4064C36.8979 13.3536 36.8797 13.3014 36.8593 13.2501C36.8542 13.2397 36.849 13.2292 36.8437 13.2189C36.8225 13.1658 36.799 13.1137 36.7733 13.0626C36.7682 13.0548 36.763 13.047 36.7577 13.0392C36.7242 12.9801 36.6877 12.9227 36.6483 12.8673C36.6189 12.8218 36.5876 12.7775 36.5546 12.7345C36.5468 12.7266 36.539 12.7188 36.5312 12.7111C36.4939 12.6677 36.4548 12.626 36.414 12.5861C36.4062 12.5782 36.3984 12.5704 36.3905 12.5626C36.3504 12.5245 36.3087 12.488 36.2655 12.4532C36.2578 12.4454 36.25 12.4376 36.2421 12.4298C36.2292 12.4192 36.2162 12.4088 36.203 12.3986L20.203 0.398561C19.8262 0.115203 19.3613 -0.0259125 18.8905 0.00012384ZM18.9999 4.50012L28.9999 12.0001H8.99991L18.9999 4.50012ZM4.99991 16.0001H32.9999V42.0001V42.8907L18.9999 51.6407L4.99991 42.8907V42.0001V16.0001ZM19.0155 19.9376L16.0468 26.922L8.49991 27.5626L14.1952 32.6173L12.5155 40.0001L19.0155 36.0704L25.5155 40.0001L23.8202 32.6173L29.5233 27.5626L21.9765 26.922L19.0155 19.9376Z" fill="#EB5757"/>
</svg>
