<svg width="54" height="54" viewBox="0 0 54 54" fill="none" xmlns="http://www.w3.org/2000/svg">
<path d="M53.6667 24.3333C53.6742 22.4537 53.1848 20.6055 52.2483 18.9759C51.3117 17.3463 49.9612 15.9931 48.3334 15.0533C48.3735 14.5919 48.3735 14.128 48.3334 13.6666C48.3334 11.5449 47.4905 9.51005 45.9902 8.00976C44.4899 6.50946 42.4551 5.66661 40.3334 5.66661H39.8534C39.4093 4.43544 38.6699 3.33203 37.7001 2.45313C36.7303 1.57424 35.5597 0.946701 34.2909 0.625554C33.0221 0.304407 31.6939 0.299459 30.4228 0.611144C29.1516 0.92283 27.9764 1.54163 27 2.41328C26.0237 1.54163 24.8485 0.92283 23.5773 0.611144C22.3062 0.299459 20.9779 0.304407 19.7092 0.625554C18.4404 0.946701 17.2697 1.57424 16.2999 2.45313C15.3301 3.33203 14.5908 4.43544 14.1467 5.66661H13.6667C11.545 5.66661 9.51014 6.50946 8.00985 8.00976C6.50956 9.51005 5.66671 11.5449 5.66671 13.6666C5.62657 14.128 5.62657 14.5919 5.66671 15.0533C4.15327 15.9087 2.87186 17.1211 1.93401 18.5849C0.996172 20.0487 0.430328 21.7196 0.285738 23.4521C0.141148 25.1845 0.422195 26.926 1.10441 28.5251C1.78663 30.1241 2.84934 31.5321 4.20004 32.6266C3.3261 34.2566 2.89101 36.0859 2.93749 37.9349C2.98397 39.7838 3.51042 41.5889 4.46517 43.173C5.41991 44.7571 6.77014 46.0657 8.38332 46.9704C9.9965 47.875 11.8172 48.3447 13.6667 48.3333H14.1467C14.5908 49.5644 15.3301 50.6679 16.2999 51.5468C17.2697 52.4257 18.4404 53.0532 19.7092 53.3743C20.9779 53.6955 22.3062 53.7004 23.5773 53.3887C24.8485 53.0771 26.0237 52.4583 27 51.5866C27.9764 52.4583 29.1516 53.0771 30.4228 53.3887C31.6939 53.7004 33.0221 53.6955 34.2909 53.3743C35.5597 53.0532 36.7303 52.4257 37.7001 51.5468C38.6699 50.6679 39.4093 49.5644 39.8534 48.3333H40.3334C42.1716 48.3217 43.9756 47.8352 45.5704 46.921C47.1653 46.0069 48.4968 44.6961 49.4358 43.1158C50.3749 41.5355 50.8896 39.7394 50.93 37.9016C50.9705 36.0638 50.5353 34.2467 49.6667 32.6266C50.9105 31.6308 51.9154 30.3689 52.6076 28.9338C53.2998 27.4986 53.6617 25.9266 53.6667 24.3333ZM24.3334 17.7999C23.7526 17.4678 23.1462 17.1824 22.52 16.9466C21.8482 16.7203 21.1139 16.7701 20.4788 17.0852C19.8436 17.4003 19.3597 17.9547 19.1334 18.6266C18.9071 19.2985 18.9569 20.0328 19.272 20.6679C19.587 21.303 20.1415 21.787 20.8134 22.0133C21.8399 22.3844 22.7278 23.0615 23.3573 23.9533C23.9867 24.845 24.3274 25.9084 24.3334 26.9999V31.1333C23.7526 30.8011 23.1462 30.5157 22.52 30.2799C21.8482 30.0536 21.1139 30.1035 20.4788 30.4185C19.8436 30.7336 19.3597 31.2881 19.1334 31.9599C18.9071 32.6318 18.9569 33.3661 19.272 34.0012C19.587 34.6363 20.1415 35.1203 20.8134 35.3466C21.8399 35.7177 22.7278 36.3948 23.3573 37.2866C23.9867 38.1783 24.3274 39.2418 24.3334 40.3333V45.6666C24.3334 46.3739 24.0524 47.0521 23.5523 47.5522C23.0522 48.0523 22.374 48.3333 21.6667 48.3333C21.1508 48.3299 20.6469 48.177 20.2162 47.893C19.7855 47.609 19.4464 47.2061 19.24 46.7333C19.6872 46.4709 20.1149 46.1768 20.52 45.8533C20.7897 45.6292 21.0126 45.3541 21.1759 45.0439C21.3393 44.7336 21.4399 44.3942 21.4721 44.0451C21.5043 43.6959 21.4674 43.3439 21.3635 43.009C21.2596 42.6741 21.0908 42.3629 20.8667 42.0933C20.6426 41.8236 20.3675 41.6008 20.0573 41.4374C19.747 41.2741 19.4076 41.1734 19.0585 41.1412C18.7094 41.109 18.3573 41.1459 18.0224 41.2498C17.6875 41.3537 17.3764 41.5225 17.1067 41.7466C16.1439 42.5572 14.9253 43.0012 13.6667 42.9999C12.2522 42.9999 10.8957 42.438 9.89547 41.4378C8.89528 40.4376 8.33337 39.0811 8.33337 37.6666C8.34613 36.6629 8.64191 35.6831 9.18671 34.8399C9.78516 34.9473 10.392 35.0008 11 34.9999C11.7073 34.9999 12.3856 34.719 12.8857 34.2189C13.3858 33.7188 13.6667 33.0405 13.6667 32.3333C13.6667 31.626 13.3858 30.9478 12.8857 30.4477C12.3856 29.9476 11.7073 29.6666 11 29.6666C10.3701 29.6702 9.74543 29.5525 9.16004 29.3199C8.20096 28.974 7.36112 28.3605 6.74001 27.552C6.11891 26.7434 5.74257 25.7738 5.65558 24.758C5.56859 23.7422 5.77459 22.7227 6.24918 21.8203C6.72377 20.918 7.44707 20.1705 8.33337 19.6666C8.7123 20.0152 9.12297 20.3277 9.56004 20.5999C10.1753 20.9536 10.9059 21.0483 11.5911 20.8632C12.2762 20.6782 12.8597 20.2286 13.2134 19.6133C13.567 18.998 13.6617 18.2674 13.4767 17.5823C13.2916 16.8971 12.842 16.3136 12.2267 15.9599C11.8513 15.7529 11.5382 15.449 11.32 15.0799C11.0735 14.6518 10.962 14.1592 11 13.6666C11 12.9594 11.281 12.2811 11.7811 11.781C12.2812 11.2809 12.9595 10.9999 13.6667 10.9999C13.8525 10.974 14.0409 10.974 14.2267 10.9999C14.3679 11.4284 14.5371 11.8471 14.7334 12.2533C14.9076 12.5588 15.1405 12.8269 15.4188 13.0421C15.697 13.2572 16.0151 13.4152 16.3547 13.5069C16.6943 13.5986 17.0486 13.6223 17.3974 13.5764C17.7461 13.5306 18.0823 13.4163 18.3867 13.2399C18.9779 12.8842 19.4082 12.3132 19.5873 11.6469C19.7663 10.9805 19.6801 10.2707 19.3467 9.66661C19.123 9.25756 19.0039 8.79951 19 8.33328C19 7.62603 19.281 6.94776 19.7811 6.44766C20.2812 5.94756 20.9595 5.66661 21.6667 5.66661C22.374 5.66661 23.0522 5.94756 23.5523 6.44766C24.0524 6.94776 24.3334 7.62603 24.3334 8.33328V17.7999ZM44.84 29.3199C44.2546 29.5525 43.6299 29.6702 43 29.6666C42.2928 29.6666 41.6145 29.9476 41.1144 30.4477C40.6143 30.9478 40.3334 31.626 40.3334 32.3333C40.3334 33.0405 40.6143 33.7188 41.1144 34.2189C41.6145 34.719 42.2928 34.9999 43 34.9999C43.608 35.0008 44.2149 34.9473 44.8134 34.8399C45.3582 35.6831 45.6539 36.6629 45.6667 37.6666C45.6667 39.0811 45.1048 40.4376 44.1046 41.4378C43.1044 42.438 41.7479 42.9999 40.3334 42.9999C39.0747 43.0012 37.8562 42.5572 36.8934 41.7466C36.3488 41.294 35.6467 41.0762 34.9416 41.1412C34.2364 41.2062 33.586 41.5487 33.1334 42.0933C32.6807 42.6379 32.463 43.3399 32.528 44.0451C32.593 44.7502 32.9355 45.4006 33.48 45.8533C33.8851 46.1768 34.3129 46.4709 34.76 46.7333C34.5537 47.2061 34.2146 47.609 33.7839 47.893C33.3531 48.177 32.8493 48.3299 32.3334 48.3333C31.6261 48.3333 30.9479 48.0523 30.4478 47.5522C29.9477 47.0521 29.6667 46.3739 29.6667 45.6666V40.3333C29.6726 39.2418 30.0133 38.1783 30.6428 37.2866C31.2723 36.3948 32.1602 35.7177 33.1867 35.3466C33.8586 35.1203 34.413 34.6363 34.7281 34.0012C35.0432 33.3661 35.093 32.6318 34.8667 31.9599C34.6404 31.2881 34.1564 30.7336 33.5213 30.4185C32.8862 30.1035 32.1519 30.0536 31.48 30.2799C30.8539 30.5157 30.2475 30.8011 29.6667 31.1333V26.9999C29.6726 25.9084 30.0133 24.845 30.6428 23.9533C31.2723 23.0615 32.1602 22.3844 33.1867 22.0133C33.8586 21.787 34.413 21.303 34.7281 20.6679C35.0432 20.0328 35.093 19.2985 34.8667 18.6266C34.6404 17.9547 34.1564 17.4003 33.5213 17.0852C32.8862 16.7701 32.1519 16.7203 31.48 16.9466C30.8539 17.1824 30.2475 17.4678 29.6667 17.7999V8.33328C29.6667 7.62603 29.9477 6.94776 30.4478 6.44766C30.9479 5.94756 31.6261 5.66661 32.3334 5.66661C33.0406 5.66661 33.7189 5.94756 34.219 6.44766C34.7191 6.94776 35 7.62603 35 8.33328C34.9962 8.79951 34.8771 9.25756 34.6534 9.66661C34.476 9.96938 34.36 10.3042 34.3123 10.6518C34.2645 10.9995 34.2858 11.3532 34.375 11.6926C34.4642 12.032 34.6195 12.3504 34.832 12.6297C35.0445 12.9089 35.31 13.1435 35.6134 13.3199C35.9177 13.4963 36.254 13.6106 36.6027 13.6564C36.9514 13.7023 37.3058 13.6786 37.6454 13.5869C37.985 13.4952 38.303 13.3372 38.5813 13.1221C38.8596 12.9069 39.0925 12.6388 39.2667 12.3333C39.4663 11.9011 39.6356 11.4556 39.7734 10.9999C39.9591 10.974 40.1476 10.974 40.3334 10.9999C41.0406 10.9999 41.7189 11.2809 42.219 11.781C42.7191 12.2811 43 12.9594 43 13.6666C42.996 14.1894 42.8383 14.6994 42.5467 15.1333C42.3286 15.4793 42.0257 15.7639 41.6667 15.9599C41.0514 16.3136 40.6018 16.8971 40.4167 17.5823C40.2317 18.2674 40.3264 18.998 40.68 19.6133C41.0337 20.2286 41.6172 20.6782 42.3024 20.8632C42.9875 21.0483 43.7181 20.9536 44.3334 20.5999C44.8122 20.341 45.2595 20.0278 45.6667 19.6666C46.556 20.1616 47.2851 20.9008 47.7679 21.7968C48.2507 22.6929 48.4671 23.7083 48.3913 24.7233C48.3156 25.7383 47.9511 26.7105 47.3407 27.525C46.7303 28.3395 45.8996 28.9623 44.9467 29.3199H44.84Z" fill="#EB5757"/>
</svg>
