<svg xmlns="http://www.w3.org/2000/svg" width="46.002" height="46" viewBox="0 0 46.002 46">
  <path id="Path_81" data-name="Path 81" d="M21.469,2c-4.578,0-7.91,1.859-9.656,4.594a9.965,9.965,0,0,0-.719,8.844,2.982,2.982,0,0,0-.625,2.281,5.312,5.312,0,0,0,.906,2.625c.234.308.551.34.844.5a12.125,12.125,0,0,0,.719,2.812,8.462,8.462,0,0,0,.656,1.282,5.017,5.017,0,0,0,.406.406V28.75a4.122,4.122,0,0,1-1.969,1.938c-1.066.6-2.484,1.144-3.906,1.843a12.367,12.367,0,0,0-4.031,2.907A8.946,8.946,0,0,0,2,40.938,1,1,0,0,0,3,42H25.625A11.994,11.994,0,1,0,36.156,24c-.027-.711-.035-1.387-.031-2.125.082-.1.234-.168.313-.281a7.137,7.137,0,0,0,.625-1.094,9.633,9.633,0,0,0,.687-2.406c.238-.145.5-.156.688-.406a4.6,4.6,0,0,0,.781-2.282,3.311,3.311,0,0,0-.188-1.656c-.058-.141-.258-.184-.343-.312a5.894,5.894,0,0,0,.593-1.875,9.936,9.936,0,0,0-.25-3.375,6.649,6.649,0,0,0-1.687-3.125,5.094,5.094,0,0,0-2.969-1.344l-.562-1.156A.994.994,0,0,0,32.906,2a9.854,9.854,0,0,0-7.343,2.813,6.414,6.414,0,0,0-2.5-.782l-.688-1.468A.994.994,0,0,0,21.469,2Zm-.625,2.063.625,1.281a.993.993,0,0,0,.906.562A3.684,3.684,0,0,1,25.156,7a5.894,5.894,0,0,1,1.438,2.719,9.823,9.823,0,0,1,.25,3.25,4.909,4.909,0,0,1-.594,2.062,1,1,0,0,0,.438,1.563c0,.011-.012,0,0,.031a1.758,1.758,0,0,1,.093.875,3.385,3.385,0,0,1-.5,1.625c-.16.211-.246.191-.218.188a1,1,0,0,0-.907.906,8.882,8.882,0,0,1-.781,2.625,6.679,6.679,0,0,1-.531.969,3.281,3.281,0,0,1-.25.312,1,1,0,0,0-.5.875c0,.945-.094,2.945-.094,4a1.012,1.012,0,0,0,.063.344,4.831,4.831,0,0,0,1.781,2.25A11.946,11.946,0,0,0,24.688,40H4.219a6.68,6.68,0,0,1,1.406-3.25,10.64,10.64,0,0,1,3.406-2.437c1.317-.649,2.711-1.165,3.969-1.875a6,6,0,0,0,2.938-3.094A1.035,1.035,0,0,0,16,29V25a1.008,1.008,0,0,0-.5-.844s0-.015-.031-.031c-.035-.043-.1-.141-.188-.281a6.488,6.488,0,0,1-.5-.969,9.81,9.81,0,0,1-.718-2.656,1,1,0,0,0-.907-.906c.028,0-.027.023-.187-.188a3.385,3.385,0,0,1-.5-1.625,1.228,1.228,0,0,1,.25-1.031,1,1,0,0,0,.375-1.25A8,8,0,0,1,13.5,7.688C14.781,5.68,17.176,4.223,20.844,4.063Zm11.5.062.437.906a.994.994,0,0,0,.907.563,2.908,2.908,0,0,1,2.218.875,4.821,4.821,0,0,1,1.188,2.219,8.162,8.162,0,0,1,.187,2.687,4.116,4.116,0,0,1-.468,1.656,1,1,0,0,0,.375,1.5,1.515,1.515,0,0,1,.031.657,2.96,2.96,0,0,1-.375,1.312c-.055.074-.082.09-.094.094a1,1,0,0,0-.875.875,7.3,7.3,0,0,1-.625,2.156,5.652,5.652,0,0,1-.469.813,3.125,3.125,0,0,1-.218.25,1.008,1.008,0,0,0-.438.843c0,.9-.008,1.7.031,2.625a12.013,12.013,0,0,0-8.406,5.625A2.939,2.939,0,0,1,25,28.719c.008-.914.082-2.364.094-3.375a4.422,4.422,0,0,0,.375-.375,8.739,8.739,0,0,0,.719-1.281,11.071,11.071,0,0,0,.843-2.844c.293-.16.61-.192.844-.5a5.333,5.333,0,0,0,.875-2.625,3.756,3.756,0,0,0-.219-1.875c-.082-.2-.312-.27-.437-.438a6.5,6.5,0,0,0,.75-2.25,11.726,11.726,0,0,0-.313-3.937,8.248,8.248,0,0,0-1.468-3.063A7.787,7.787,0,0,1,32.344,4.125ZM36,26a9.985,9.985,0,1,1-9.25,6.188,1,1,0,0,0,.438-.938A9.965,9.965,0,0,1,36,26Zm.781,1.031-.125,2,.719.094.063.031h.031l.062-.312.407-1.625-.063-.031H37.75l-.781-.125-.063-.032Zm-2.187.094-.344.063h-.125l-.594.156.5,1.937.5-.125.094-.031.281-.031Zm5.375.813-.875,1.812.187.063.094.062.5.313,1.031-1.719-.562-.344-.063-.031-.031-.031Zm-8.5.281L31,28.5l-.062.063-.375.281,1.218,1.594.25-.219.063-.031.031-.032.375-.218Zm11.156,1.719-1.469,1.343.219.219.063.094.281.375,1.594-1.219-.344-.437-.063-.063Zm-13.656.468-.406.532L28.5,31l-.156.281,1.719,1.032.125-.25.031-.032.344-.437ZM33.844,31.5,33,36.125h1.531a1.487,1.487,0,0,1,1.282-.656,1.4,1.4,0,0,1,1.437,1.562,1.519,1.519,0,0,1-1.437,1.625,1.357,1.357,0,0,1-1.375-1.281H32.75c-.016,1.008.691,2.656,3.094,2.656a3.031,3.031,0,0,0,3.125-3c0-.578-.313-2.843-2.594-2.843a2.068,2.068,0,0,0-1.625.625h-.031l.344-1.907H38.5V31.5Zm10.531,1.25-1.875.688.156.437v.031l.032.063.093.312,1.938-.5-.125-.406v-.094Zm-16.937.5-.032.031v.094l-.218.75v.125l-.032.156,1.969.282v-.063l.031-.094.157-.562v-.031l.031-.063-.688-.187ZM43,35.938v.125l-.031.593-.031.188,2,.281v-.156l.031-.063v-.031L45,36.063,44,36h-.156Zm-13.969.531-2,.094v.343l.032.063.093.656,1.969-.281-.094-.563ZM42.5,38.531l-.031.157-.031.031v.062l-.282.563,1.782.875.343-.656V39.5l.032-.031.093-.25Zm-12.844.375-1.812.875.219.469.031.031.031.063.219.406,1.719-1.062-.188-.313-.062-.094Zm11.5,1.813-.625.625,1.344,1.469.469-.407.062-.062.25-.281ZM31.125,41l-1.344,1.5.469.406.063.063.281.219,1.187-1.594-.187-.156-.094-.063Zm8,1.25-.344.188-.468.156L39,44.469l.469-.156.031-.032h.063L40,44.063Zm-5.906.188-.688,1.875.75.281h.094l.188.062.5-1.937Zm3.469.531L36.063,43h-.25l-.094,2h.344l.718-.031Z" transform="translate(-1.998 -2)" fill="#fff"/>
</svg>
