<?xml version="1.0" encoding="utf-8"?>
<!-- Generator: Adobe Illustrator 24.1.0, SVG Export Plug-In . SVG Version: 6.00 Build 0)  -->
<svg version="1.1" id="Calque_1" xmlns="http://www.w3.org/2000/svg" xmlns:xlink="http://www.w3.org/1999/xlink" x="0px" y="0px"
	 viewBox="0 0 51 37" style="enable-background:new 0 0 51 37;" xml:space="preserve">
<style type="text/css">
	.st0{fill:#EB5757;}
	.st1{fill:none;stroke:#EB5757;stroke-miterlimit:10;}
</style>
<path class="st0" d="M1.3,0.5C0.8,0.6,0.5,1,0.5,1.5v34c0,0.6,0.4,1,1,1h48c0.6,0,1-0.4,1-1v-34c0,0,0-0.1,0-0.1
	c0-0.5-0.5-0.9-1-0.9h-48C1.5,0.5,1.4,0.5,1.3,0.5C1.4,0.5,1.3,0.5,1.3,0.5z M2.5,2.5h46v32h-46V2.5z M25.5,5.1l-0.6,1.2l-1.4,0.2
	l1,1l-0.2,1.4l1.2-0.6l1.2,0.6l-0.2-1.4l1-1l-1.4-0.2L25.5,5.1z M19.6,6.9L19,8.1l-1.4,0.2l1,1l-0.2,1.4l1.2-0.7l1.2,0.7l-0.2-1.4
	l1-1l-1.4-0.2L19.6,6.9z M31.4,6.9l-0.6,1.2l-1.4,0.2l1,1l-0.2,1.4l1.2-0.7l1.2,0.7l-0.2-1.4l1-1L32,8.1L31.4,6.9z M15.4,10.8
	L14.8,12l-1.4,0.2l1,1l-0.2,1.4l1.2-0.7l1.2,0.7l-0.2-1.4l1-1L16,12L15.4,10.8z M35.6,10.8L35,12l-1.4,0.2l1,1l-0.2,1.4l1.2-0.7
	l1.2,0.7l-0.2-1.4l1-1L36.2,12L35.6,10.8z M14,16.6l-0.6,1.2L12,18.1l1,1l-0.2,1.4l1.2-0.7l1.2,0.7L15,19l1-1l-1.4-0.2L14,16.6z
	 M37,16.6l-0.6,1.2L35,18.1l1,1l-0.2,1.4l1.2-0.7l1.2,0.7L38,19l1-1l-1.4-0.2L37,16.6z M15.4,21.8L14.8,23l-1.4,0.2l1,1l-0.2,1.4
	l1.2-0.7l1.2,0.7l-0.2-1.4l1-1L16,23L15.4,21.8z M35.6,21.8L35,23l-1.4,0.2l1,1l-0.2,1.4l1.2-0.7l1.2,0.7l-0.2-1.4l1-1L36.2,23
	L35.6,21.8z M19.6,25.7L19,26.9l-1.4,0.2l1,1l-0.2,1.3l1.2-0.6l1.2,0.6l-0.2-1.3l1-1l-1.4-0.2L19.6,25.7z M31.4,25.7l-0.6,1.2
	l-1.4,0.2l1,1l-0.2,1.3l1.2-0.6l1.2,0.6l-0.2-1.3l1-1L32,26.9L31.4,25.7z M25.5,28.1l-0.6,1.2l-1.4,0.2l1,1l-0.2,1.4l1.2-0.7
	l1.2,0.7l-0.2-1.4l1-1l-1.4-0.2L25.5,28.1z"/>
<path class="st1" d="M1.3,0.5C0.8,0.6,0.5,1,0.5,1.5v34c0,0.6,0.4,1,1,1h48c0.6,0,1-0.4,1-1v-34c0,0,0-0.1,0-0.1
	c0-0.5-0.5-0.9-1-0.9h-48C1.5,0.5,1.4,0.5,1.3,0.5C1.4,0.5,1.3,0.5,1.3,0.5z M2.5,2.5h46v32h-46V2.5z M25.5,5.1l-0.6,1.2l-1.4,0.2
	l1,1l-0.2,1.4l1.2-0.6l1.2,0.6l-0.2-1.4l1-1l-1.4-0.2L25.5,5.1z M19.6,6.9L19,8.1l-1.4,0.2l1,1l-0.2,1.4l1.2-0.7l1.2,0.7l-0.2-1.4
	l1-1l-1.4-0.2L19.6,6.9z M31.4,6.9l-0.6,1.2l-1.4,0.2l1,1l-0.2,1.4l1.2-0.7l1.2,0.7l-0.2-1.4l1-1L32,8.1L31.4,6.9z M15.4,10.8
	L14.8,12l-1.4,0.2l1,1l-0.2,1.4l1.2-0.7l1.2,0.7l-0.2-1.4l1-1L16,12L15.4,10.8z M35.6,10.8L35,12l-1.4,0.2l1,1l-0.2,1.4l1.2-0.7
	l1.2,0.7l-0.2-1.4l1-1L36.2,12L35.6,10.8z M14,16.6l-0.6,1.2L12,18.1l1,1l-0.2,1.4l1.2-0.7l1.2,0.7L15,19l1-1l-1.4-0.2L14,16.6z
	 M37,16.6l-0.6,1.2L35,18.1l1,1l-0.2,1.4l1.2-0.7l1.2,0.7L38,19l1-1l-1.4-0.2L37,16.6z M15.4,21.8L14.8,23l-1.4,0.2l1,1l-0.2,1.4
	l1.2-0.7l1.2,0.7l-0.2-1.4l1-1L16,23L15.4,21.8z M35.6,21.8L35,23l-1.4,0.2l1,1l-0.2,1.4l1.2-0.7l1.2,0.7l-0.2-1.4l1-1L36.2,23
	L35.6,21.8z M19.6,25.7L19,26.9l-1.4,0.2l1,1l-0.2,1.3l1.2-0.6l1.2,0.6l-0.2-1.3l1-1l-1.4-0.2L19.6,25.7z M31.4,25.7l-0.6,1.2
	l-1.4,0.2l1,1l-0.2,1.3l1.2-0.6l1.2,0.6l-0.2-1.3l1-1L32,26.9L31.4,25.7z M25.5,28.1l-0.6,1.2l-1.4,0.2l1,1l-0.2,1.4l1.2-0.7
	l1.2,0.7l-0.2-1.4l1-1l-1.4-0.2L25.5,28.1z"/>
</svg>
