<svg xmlns="http://www.w3.org/2000/svg" width="36.015" height="46.016" viewBox="0 0 36.015 46.016">
  <path id="Path_82" data-name="Path 82" d="M29.984,1.984c-.046,0-.1.008-.144.016H7V48H43V15.168a.882.882,0,0,0,0-.324v-.258l-.191-.2a1.391,1.391,0,0,0-.184-.184l-.008,0L30.793,2.375a1.04,1.04,0,0,0-.188-.187L30.414,2h-.258A1.236,1.236,0,0,0,29.984,1.984ZM9,4H29V16H41V46H9ZM31,5.414,39.586,14H31ZM14,20v2h1v7h2V20Zm9.5,0A3.514,3.514,0,0,0,20,23.5v2a3.5,3.5,0,0,0,7,0v-2A3.514,3.514,0,0,0,23.5,20Zm9,0A3.514,3.514,0,0,0,29,23.5v2a3.5,3.5,0,0,0,7,0v-2A3.514,3.514,0,0,0,32.5,20Zm-9,2A1.485,1.485,0,0,1,25,23.5v2a1.5,1.5,0,0,1-3,0v-2A1.485,1.485,0,0,1,23.5,22Zm9,0A1.485,1.485,0,0,1,34,23.5v2a1.5,1.5,0,0,1-3,0v-2A1.485,1.485,0,0,1,32.5,22Zm-15,11A3.514,3.514,0,0,0,14,36.5v2a3.5,3.5,0,0,0,7,0v-2A3.514,3.514,0,0,0,17.5,33Zm9,0A3.514,3.514,0,0,0,23,36.5v2a3.5,3.5,0,0,0,7,0v-2A3.514,3.514,0,0,0,26.5,33ZM32,33v2h1v7h2V33ZM17.5,35A1.485,1.485,0,0,1,19,36.5v2a1.5,1.5,0,0,1-3,0v-2A1.485,1.485,0,0,1,17.5,35Zm9,0A1.485,1.485,0,0,1,28,36.5v2a1.5,1.5,0,0,1-3,0v-2A1.485,1.485,0,0,1,26.5,35Z" transform="translate(-7 -1.984)" fill="#fff"/>
</svg>
