<svg xmlns="http://www.w3.org/2000/svg" width="24.097" height="50.001" viewBox="0 0 24.097 50.001">
  <path id="Path_76" data-name="Path 76" d="M24.813,0a1,1,0,0,0-.719.594L13,24.594A1,1,0,0,0,13.938,26H25.344L19.406,37H15a1,1,0,0,0-.969,1.25l3,11a1,1,0,0,0,1.594.531l14-11A1,1,0,0,0,32,37H27.719l9.156-16.5A1,1,0,0,0,36,19H24.594L32.906,1.438A1,1,0,0,0,32,0H24.813Zm.812,2h4.781L22.094,19.563A1,1,0,0,0,23,21H34.281L25.125,37.5A1,1,0,0,0,26,39h3.094L18.563,47.281,16.313,39H20a1,1,0,0,0,.875-.531l7-13A1,1,0,0,0,27,24H15.5Z" transform="translate(-12.913 0)" fill="#fff"/>
</svg>
