<svg xmlns="http://www.w3.org/2000/svg" width="199.517" height="93" viewBox="0 0 199.517 93">
  <g id="Group_25" data-name="Group 25" transform="translate(-152.104 -225.281)">
    <rect id="Rectangle_34" data-name="Rectangle 34" width="199.517" height="93" transform="translate(152.104 225.281)" fill="none"/>
    <path id="Path_53" data-name="Path 53" d="M231.444,283.2l10.981-4.452,1.41,4.452L249.4,279.2l-.445-4.6-4.674-1.781-1.632-.594Z" transform="translate(-25.133 -14.87)" fill="none" stroke="#91b508" stroke-linejoin="round" stroke-width="3"/>
    <path id="Path_54" data-name="Path 54" d="M213.928,253.163a8.958,8.958,0,0,0-9.023,8.892v20.928l15.286-14.527A8.876,8.876,0,0,0,213.928,253.163Zm-9.023,34.722L222.677,271c8.164-7.757,2.591-21.363-8.749-21.363a12.514,12.514,0,0,0-12.6,12.422v43.518h3.581Z" transform="translate(-15.592 -7.715)" fill="#dd1a1e" fill-rule="evenodd"/>
    <path id="Path_55" data-name="Path 55" d="M241.71,276.456a2.893,2.893,0,0,0-4.9-2L215.1,295.116,212.6,292.63l21.711-20.66c4.09-3.893,10.986-1.077,10.986,4.485v12.926a1.615,1.615,0,0,0,3.191.3c1.193-6,10.288-5.156,10.288.956v26.389h-3.581V290.635a1.614,1.614,0,0,0-3.189-.3c-1.193,6-10.29,5.156-10.29-.956Z" transform="translate(-19.162 -14.218)" fill="#91b508" fill-rule="evenodd"/>
    <path id="Path_56" data-name="Path 56" d="M190.383,307.041a11.525,11.525,0,0,1-11.688-11.354V249.634h-3.581v46.052a15.056,15.056,0,0,0,15.27,14.833Z" transform="translate(-7.289 -7.715)" fill="#0090df" fill-rule="evenodd"/>
    <path id="Path_57" data-name="Path 57" d="M318.093,257.072a.349.349,0,0,1-.385-.384V245.752a.362.362,0,0,1,.1-.268.388.388,0,0,1,.284-.117h.886a.4.4,0,0,1,.385.385v9.865h5.552a.4.4,0,0,1,.4.4v.669a.388.388,0,0,1-.117.284.426.426,0,0,1-.284.1Zm12.441,0a.349.349,0,0,1-.385-.384v-3.946l-4.03-6.822a.434.434,0,0,0-.017-.1.279.279,0,0,1-.033-.118.343.343,0,0,1,.335-.334h.869a.472.472,0,0,1,.435.284l3.26,5.417,3.26-5.417a.535.535,0,0,1,.452-.284h.853a.34.34,0,0,1,.251.1.32.32,0,0,1,.1.234.516.516,0,0,1-.067.218l-4.013,6.822v3.946a.386.386,0,0,1-.118.284.422.422,0,0,1-.284.1Zm12.695.167a4.546,4.546,0,0,1-3.411-1.2,4.9,4.9,0,0,1-1.237-3.327q-.017-.452-.016-1.472,0-1.036.016-1.5a4.835,4.835,0,0,1,1.254-3.311,4.484,4.484,0,0,1,3.394-1.221,5.454,5.454,0,0,1,2.524.535,3.811,3.811,0,0,1,1.572,1.371,3.752,3.752,0,0,1,.585,1.823v.033a.3.3,0,0,1-.117.234.355.355,0,0,1-.234.084h-.92c-.222,0-.363-.128-.418-.385a2.751,2.751,0,0,0-1.019-1.756,3.366,3.366,0,0,0-1.973-.519q-2.877,0-2.977,3.194-.017.451-.016,1.388t.016,1.421q.1,3.194,2.977,3.194a3.454,3.454,0,0,0,1.973-.5,2.732,2.732,0,0,0,1.019-1.772.543.543,0,0,1,.151-.3.4.4,0,0,1,.267-.083h.92a.341.341,0,0,1,.251.1.235.235,0,0,1,.1.234,3.775,3.775,0,0,1-.585,1.839,3.923,3.923,0,0,1-1.572,1.388A5.6,5.6,0,0,1,343.228,257.239Zm8.979-.167a.349.349,0,0,1-.385-.384V245.769a.373.373,0,0,1,.385-.4h6.906a.334.334,0,0,1,.267.117.353.353,0,0,1,.117.284v.635a.419.419,0,0,1-.1.284.386.386,0,0,1-.284.1h-5.685v3.662h5.317a.335.335,0,0,1,.268.117.353.353,0,0,1,.117.284v.619a.385.385,0,0,1-.117.284.361.361,0,0,1-.268.1h-5.317v3.8h5.818a.35.35,0,0,1,.385.385v.652a.386.386,0,0,1-.117.284.363.363,0,0,1-.268.1Zm2.759-12.54a.236.236,0,0,1-.267-.267.294.294,0,0,1,.083-.217l1.254-1.505a1.643,1.643,0,0,1,.268-.251.722.722,0,0,1,.351-.067h1.237a.288.288,0,0,1,.234.1.317.317,0,0,1,.083.234.274.274,0,0,1-.083.2l-1.94,1.588a.673.673,0,0,1-.251.15,1.118,1.118,0,0,1-.3.033Zm9.054,12.54a.349.349,0,0,1-.385-.384V245.769a.373.373,0,0,1,.385-.4h6.905a.335.335,0,0,1,.268.117.353.353,0,0,1,.117.284v.635a.42.42,0,0,1-.1.284.385.385,0,0,1-.284.1H365.24v3.662h5.318a.333.333,0,0,1,.267.117.353.353,0,0,1,.118.284v.619a.385.385,0,0,1-.118.284.359.359,0,0,1-.267.1H365.24v3.8h5.819a.35.35,0,0,1,.385.385v.652a.388.388,0,0,1-.117.284.363.363,0,0,1-.268.1Zm-45.927,16.721a.35.35,0,0,1-.385-.385V262.49a.383.383,0,0,1,.1-.284.389.389,0,0,1,.284-.118h4.248a4.46,4.46,0,0,1,2.976.92,3.794,3.794,0,0,1,0,5.317,4.478,4.478,0,0,1-2.976.9h-2.96v4.18a.385.385,0,0,1-.117.284.42.42,0,0,1-.284.1Zm4.164-5.969a2.684,2.684,0,0,0,1.839-.552,2.01,2.01,0,0,0,.635-1.6,2.039,2.039,0,0,0-.618-1.606,2.666,2.666,0,0,0-1.856-.568h-2.893v4.331Zm8.237,5.969a.35.35,0,0,1-.385-.385V262.472a.361.361,0,0,1,.1-.267.386.386,0,0,1,.284-.118h.886a.4.4,0,0,1,.385.385v10.936a.39.39,0,0,1-.117.284.363.363,0,0,1-.268.1Zm6.245,0a.35.35,0,0,1-.385-.385V262.49a.374.374,0,0,1,.385-.4h6.906a.336.336,0,0,1,.267.118.356.356,0,0,1,.118.284v.635a.421.421,0,0,1-.1.284.385.385,0,0,1-.284.1h-5.685v3.661h5.317a.337.337,0,0,1,.268.118.356.356,0,0,1,.117.284v.618a.389.389,0,0,1-.117.284.363.363,0,0,1-.268.1h-5.317v3.8h5.819a.349.349,0,0,1,.384.385v.652a.39.39,0,0,1-.117.284.363.363,0,0,1-.267.1Zm11.811,0a.35.35,0,0,1-.385-.385V262.49a.383.383,0,0,1,.1-.284.39.39,0,0,1,.284-.118h4.08a4.574,4.574,0,0,1,3.01.9,3.2,3.2,0,0,1,1.087,2.609,3.305,3.305,0,0,1-.635,2.09,3.189,3.189,0,0,1-1.756,1.137l2.575,4.448a.416.416,0,0,1,.05.184.3.3,0,0,1-.117.234.32.32,0,0,1-.234.1h-.8a.638.638,0,0,1-.4-.117,1.217,1.217,0,0,1-.251-.335l-2.425-4.247H349.8v4.314a.385.385,0,0,1-.117.284.419.419,0,0,1-.284.1Zm4.013-6.12q2.492,0,2.491-2.091t-2.491-2.09H349.8v4.181Zm8.616,6.12a.35.35,0,0,1-.385-.385V262.49a.384.384,0,0,1,.1-.284.388.388,0,0,1,.284-.118h4.08a4.574,4.574,0,0,1,3.01.9,3.2,3.2,0,0,1,1.087,2.609,3.314,3.314,0,0,1-.635,2.09,3.2,3.2,0,0,1-1.756,1.137l2.575,4.448a.417.417,0,0,1,.05.184.3.3,0,0,1-.117.234.322.322,0,0,1-.234.1h-.8a.638.638,0,0,1-.4-.117,1.218,1.218,0,0,1-.251-.335l-2.425-4.247h-2.926v4.314a.385.385,0,0,1-.118.284.421.421,0,0,1-.284.1Zm4.013-6.12q2.49,0,2.491-2.091t-2.491-2.09h-2.759v4.181Zm8.615,6.12a.35.35,0,0,1-.385-.385V262.49a.384.384,0,0,1,.1-.284.39.39,0,0,1,.284-.118h6.906a.334.334,0,0,1,.267.118.352.352,0,0,1,.118.284v.635a.421.421,0,0,1-.1.284.383.383,0,0,1-.284.1h-5.685v3.661h5.317a.335.335,0,0,1,.268.118.352.352,0,0,1,.117.284v.618a.384.384,0,0,1-.117.284.361.361,0,0,1-.268.1h-5.317v3.8h5.819a.349.349,0,0,1,.384.385v.652a.384.384,0,0,1-.117.284.361.361,0,0,1-.267.1Zm-55.714,16.721a.35.35,0,0,1-.385-.385V279.21a.373.373,0,0,1,.385-.4h.836a.5.5,0,0,1,.435.268l3.528,6.755,3.562-6.755a.41.41,0,0,1,.134-.184.478.478,0,0,1,.284-.083h.819a.4.4,0,0,1,.4.4v10.919a.385.385,0,0,1-.117.284.421.421,0,0,1-.284.1h-.819a.35.35,0,0,1-.385-.385V281.9l-2.792,5.451a.558.558,0,0,1-.535.351h-.519a.558.558,0,0,1-.535-.351L319.3,281.9v8.227a.386.386,0,0,1-.117.284.361.361,0,0,1-.267.1Zm14.947,0a.35.35,0,0,1-.385-.385V279.21a.385.385,0,0,1,.1-.284.389.389,0,0,1,.284-.117h6.905a.335.335,0,0,1,.268.117.353.353,0,0,1,.117.284v.635a.42.42,0,0,1-.1.284.381.381,0,0,1-.284.1H334.26v3.662h5.317a.335.335,0,0,1,.268.117.355.355,0,0,1,.117.284v.619a.387.387,0,0,1-.117.284.361.361,0,0,1-.268.1H334.26v3.8h5.819a.35.35,0,0,1,.385.385v.652a.385.385,0,0,1-.117.284.361.361,0,0,1-.268.1Zm11.812,0a.349.349,0,0,1-.384-.385V279.21a.372.372,0,0,1,.384-.4h.769a.426.426,0,0,1,.418.234l5.551,8.527V279.21a.373.373,0,0,1,.385-.4h.8a.4.4,0,0,1,.4.4v10.9a.384.384,0,0,1-.117.284.333.333,0,0,1-.268.117h-.8a.46.46,0,0,1-.4-.234l-5.534-8.444v8.294a.386.386,0,0,1-.118.284.421.421,0,0,1-.284.1Zm13.3,0a.349.349,0,0,1-.384-.385V279.21a.384.384,0,0,1,.1-.284.388.388,0,0,1,.284-.117h3.8a4.96,4.96,0,0,1,3.645,1.137,4.769,4.769,0,0,1,1.17,3.394q.017.485.017,1.3t-.017,1.321a6.452,6.452,0,0,1-.535,2.591,3.031,3.031,0,0,1-1.488,1.472,6.373,6.373,0,0,1-2.709.485Zm3.8-1.422a4.317,4.317,0,0,0,1.823-.318,1.926,1.926,0,0,0,.986-1,4.932,4.932,0,0,0,.351-1.873q.033-1,.034-1.254,0-.267-.034-1.237A3.4,3.4,0,0,0,364.32,281a3.331,3.331,0,0,0-2.458-.769H359.4v8.862Zm9.4,1.422a.35.35,0,0,1-.385-.385V279.21a.373.373,0,0,1,.385-.4h6.906a.335.335,0,0,1,.268.117.355.355,0,0,1,.117.284v.635a.42.42,0,0,1-.1.284.385.385,0,0,1-.284.1h-5.685v3.662h5.318a.334.334,0,0,1,.267.117.353.353,0,0,1,.117.284v.619a.385.385,0,0,1-.117.284.361.361,0,0,1-.267.1h-5.318v3.8h5.819a.35.35,0,0,1,.385.385v.652a.386.386,0,0,1-.117.284.36.36,0,0,1-.267.1Zm15.191.167a6.109,6.109,0,0,1-2.408-.435,3.756,3.756,0,0,1-1.538-1.137,2.716,2.716,0,0,1-.568-1.539.319.319,0,0,1,.1-.234.364.364,0,0,1,.267-.118h.853a.437.437,0,0,1,.435.335,1.99,1.99,0,0,0,.853,1.2,3.465,3.465,0,0,0,2.007.5,3.691,3.691,0,0,0,2.09-.485,1.611,1.611,0,0,0,.7-1.388,1.246,1.246,0,0,0-.351-.92,2.841,2.841,0,0,0-1-.619q-.669-.268-2.006-.669a10.271,10.271,0,0,1-2.074-.786,3,3,0,0,1-1.154-1.036,2.894,2.894,0,0,1-.385-1.555,2.831,2.831,0,0,1,.485-1.622,3.276,3.276,0,0,1,1.421-1.12,5.255,5.255,0,0,1,2.19-.418,4.963,4.963,0,0,1,2.241.469,3.551,3.551,0,0,1,1.421,1.153,2.71,2.71,0,0,1,.519,1.4.322.322,0,0,1-.1.234.31.31,0,0,1-.251.1H389.4a.4.4,0,0,1-.435-.318,1.635,1.635,0,0,0-.786-1.154,2.988,2.988,0,0,0-1.722-.468,3.192,3.192,0,0,0-1.789.435,1.446,1.446,0,0,0-.652,1.287,1.43,1.43,0,0,0,.3.937,2.664,2.664,0,0,0,.953.652,17.707,17.707,0,0,0,1.856.619,11.956,11.956,0,0,1,2.241.8,2.957,2.957,0,0,1,1.22,1.019,2.719,2.719,0,0,1,.4,1.539,2.865,2.865,0,0,1-1.2,2.441A5.356,5.356,0,0,1,386.541,290.68Z" transform="translate(-52.46 -5.367)" fill="#fff"/>
    <g id="Group_24" data-name="Group 24" transform="translate(265.052 290.739)">
      <path id="Path_58" data-name="Path 58" d="M317.807,333.039a.35.35,0,0,1-.385-.385V321.736a.385.385,0,0,1,.1-.284.389.389,0,0,1,.284-.117h6.822a.4.4,0,0,1,.4.4v.669a.373.373,0,0,1-.4.385h-5.585v3.9h5.251a.4.4,0,0,1,.4.4v.669a.388.388,0,0,1-.117.284.42.42,0,0,1-.284.1h-5.251v4.515a.386.386,0,0,1-.117.284.42.42,0,0,1-.284.1Z" transform="translate(-317.422 -321.168)" fill="#fff"/>
      <path id="Path_59" data-name="Path 59" d="M342.907,332.521l-2.575-4.448a3.2,3.2,0,0,0,1.755-1.138,3.31,3.31,0,0,0,.635-2.09,3.2,3.2,0,0,0-1.086-2.609,4.574,4.574,0,0,0-3.01-.9h-4.079a.373.373,0,0,0-.385.4v10.919a.35.35,0,0,0,.385.385h.853a.422.422,0,0,0,.284-.1.384.384,0,0,0,.117-.284v-4.314h2.926l2.425,4.247a1.2,1.2,0,0,0,.251.335.638.638,0,0,0,.4.117h.8a.322.322,0,0,0,.234-.1.3.3,0,0,0,.117-.234A.411.411,0,0,0,342.907,332.521Zm-4.348-5.6H335.8v-4.181h2.759q2.491,0,2.492,2.091T338.559,326.92Z" transform="translate(-322.725 -321.168)" fill="#fff"/>
      <path id="Path_60" data-name="Path 60" d="M361.508,332.521l-4.13-10.819a.521.521,0,0,0-.536-.368h-1.137a.52.52,0,0,0-.535.368l-4.146,10.819a.647.647,0,0,0-.017.184.343.343,0,0,0,.335.334h.853a.406.406,0,0,0,.267-.083.491.491,0,0,0,.151-.2l.92-2.374h5.484l.92,2.374a.522.522,0,0,0,.134.2.433.433,0,0,0,.284.083h.853a.343.343,0,0,0,.335-.334Zm-7.491-3.579,2.257-5.936,2.257,5.936Z" transform="translate(-328.061 -321.168)" fill="#fff"/>
      <path id="Path_61" data-name="Path 61" d="M371.875,333.039a.35.35,0,0,1-.385-.385V321.736a.373.373,0,0,1,.385-.4h.769a.427.427,0,0,1,.418.234l5.551,8.528v-8.361a.373.373,0,0,1,.385-.4h.8a.4.4,0,0,1,.4.4v10.9a.39.39,0,0,1-.117.284.336.336,0,0,1-.267.117h-.8a.459.459,0,0,1-.4-.234l-5.534-8.445v8.294a.389.389,0,0,1-.118.284.423.423,0,0,1-.284.1Z" transform="translate(-334.55 -321.168)" fill="#fff"/>
      <path id="Path_62" data-name="Path 62" d="M394.958,333.129a4.542,4.542,0,0,1-3.411-1.2,4.906,4.906,0,0,1-1.237-3.327q-.017-.452-.016-1.472,0-1.037.016-1.505a4.833,4.833,0,0,1,1.254-3.31,4.48,4.48,0,0,1,3.394-1.221,5.459,5.459,0,0,1,2.525.535A3.818,3.818,0,0,1,399.055,323a3.746,3.746,0,0,1,.586,1.823v.033a.3.3,0,0,1-.117.234.353.353,0,0,1-.234.084h-.92c-.224,0-.363-.128-.418-.385a2.758,2.758,0,0,0-1.02-1.756,3.366,3.366,0,0,0-1.973-.519q-2.877,0-2.976,3.194-.017.451-.017,1.388t.017,1.421q.1,3.193,2.976,3.194a3.449,3.449,0,0,0,1.973-.5,2.732,2.732,0,0,0,1.02-1.772.54.54,0,0,1,.15-.3.4.4,0,0,1,.268-.084h.92a.34.34,0,0,1,.251.1.24.24,0,0,1,.1.234,3.771,3.771,0,0,1-.586,1.839,3.931,3.931,0,0,1-1.571,1.388A5.6,5.6,0,0,1,394.958,333.129Z" transform="translate(-340.506 -321.09)" fill="#fff"/>
      <path id="Path_63" data-name="Path 63" d="M410.085,333.039a.35.35,0,0,1-.385-.385V321.736a.373.373,0,0,1,.385-.4h6.906a.335.335,0,0,1,.268.117.355.355,0,0,1,.117.284v.635a.421.421,0,0,1-.1.284.385.385,0,0,1-.284.1h-5.685v3.662h5.318a.334.334,0,0,1,.267.117.353.353,0,0,1,.117.284v.619a.386.386,0,0,1-.117.284.36.36,0,0,1-.267.1h-5.318v3.8h5.819a.35.35,0,0,1,.385.385v.652a.384.384,0,0,1-.117.284.36.36,0,0,1-.267.1Z" transform="translate(-346.654 -321.168)" fill="#fff"/>
    </g>
    <path id="Path_64" data-name="Path 64" d="M299.086,250.493A11.524,11.524,0,0,0,287.4,261.846v19.089h11.688v3.479H287.4v25.275h-3.581V261.846a15.056,15.056,0,0,1,15.269-14.833Z" transform="translate(-41.724 -6.884)" fill="#fbbc03" fill-rule="evenodd"/>
    <path id="Path_65" data-name="Path 65" d="M198.457,334.405c-.8,0-1.286-.025-1.374-.03l.192-3.411-.1,1.705.095-1.705a48.392,48.392,0,0,0,19.711-3.783,30.15,30.15,0,0,1,19.95-.921,15.925,15.925,0,0,1,3.07,1.778c2.012,1.367,3.769,3.6,7.164,4.1h0c-4.12,0-4.785,1.446-9.083-1.274a16.573,16.573,0,0,0-2.385-1.418,26.706,26.706,0,0,0-17.333.86A51.371,51.371,0,0,1,198.457,334.405Z" transform="translate(-14.248 -31.586)" fill="#0090df"/>
  </g>
</svg>
