<svg width="56" height="56" viewBox="0 0 56 56" fill="none" xmlns="http://www.w3.org/2000/svg">
<path d="M40 0C36.5556 0 34.3906 1.33594 32.8906 2.33594C31.3906 3.33594 30.5556 4 28 4V8C31.4444 8 33.6094 6.66406 35.1094 5.66406C36.6094 4.66406 37.4444 4 40 4V0ZM27.9688 12C27.4492 12.0083 26.9533 12.2184 26.5859 12.5859L16.5859 22.5859C16.2109 22.961 16.0001 23.4696 16 24V28H2C1.46958 28.0001 0.960906 28.2108 0.585845 28.5858C0.210784 28.9609 5.30337e-05 29.4696 0 30V53.9844V56H56V52V30C55.9999 29.4696 55.7892 28.9609 55.4142 28.5858C55.0391 28.2108 54.5304 28.0001 54 28H40V24C39.9999 23.4696 39.7891 22.961 39.4141 22.5859L29.4141 12.5859C29.2247 12.3965 28.9991 12.247 28.7509 12.1463C28.5026 12.0456 28.2366 11.9959 27.9688 12ZM28 16.8281L36 24.8281V52H32V44C32 41.792 30.208 40 28 40C25.792 40 24 41.792 24 44V52H20V24.8281L28 16.8281ZM28 28C26.9391 28 25.9217 28.4214 25.1716 29.1716C24.4214 29.9217 24 30.9391 24 32C24 33.0609 24.4214 34.0783 25.1716 34.8284C25.9217 35.5786 26.9391 36 28 36C29.0609 36 30.0783 35.5786 30.8284 34.8284C31.5786 34.0783 32 33.0609 32 32C32 30.9391 31.5786 29.9217 30.8284 29.1716C30.0783 28.4214 29.0609 28 28 28ZM4 32H16V52H4V32ZM40 32H52V52H40V32ZM8 36V40H12V36H8ZM44 36V40H48V36H44ZM8 44V48H12V44H8ZM44 44V48H48V44H44Z" fill="#EB5757"/>
</svg>
