<svg id="Group_39" data-name="Group 39" xmlns="http://www.w3.org/2000/svg" width="44.334" height="42" viewBox="0 0 44.334 42">
  <path id="Path_69" data-name="Path 69" d="M161.667,638.3c-4.237,0-6.812-4.971-7.436-6.626l-.026-.015a1.6,1.6,0,0,1-.631-.562c-.977-1.729-1.226-3.135-.739-4.178a2.284,2.284,0,0,1,.789-.929,13.946,13.946,0,0,1,.409-3.292c.48-1.783,2.692-5.147,7.634-5.147s7.153,3.364,7.633,5.142a14.007,14.007,0,0,1,.409,3.3,2.266,2.266,0,0,1,.789.93c.487,1.042.238,2.448-.739,4.178a1.6,1.6,0,0,1-.631.56l-.025.016C168.48,633.328,165.9,638.3,161.667,638.3Zm-6.452-8.368.045.027a1.5,1.5,0,0,1,.778.823c.337,1.173,2.6,5.518,5.629,5.518s5.291-4.345,5.627-5.513a1.49,1.49,0,0,1,.779-.828l.045-.027c.621-1.154.705-1.873.568-2.165a.366.366,0,0,0-.167-.168,1,1,0,0,1-.818-1.038,12.518,12.518,0,0,0-.334-3.352c-.039-.139-1.091-3.658-5.7-3.658-4.661,0-5.692,3.626-5.7,3.663a12.428,12.428,0,0,0-.333,3.347,1,1,0,0,1-.817,1.038.353.353,0,0,0-.175.185C154.579,627.933,154.448,628.512,155.215,629.934Z" transform="translate(-145.666 -607)" fill="#fff"/>
  <path id="Path_70" data-name="Path 70" d="M146.667,649h-.048a.974.974,0,0,1-.952-1.033c.342-7.161,4.8-9.377,8.125-10.426a10.19,10.19,0,0,0,3.74-2.026,1,1,0,0,1,1.4,1.426,11.9,11.9,0,0,1-4.541,2.514c-3.173,1-6.453,2.793-6.729,8.606A.989.989,0,0,1,146.667,649Z" transform="translate(-145.666 -607)" fill="#fff"/>
  <path id="Path_71" data-name="Path 71" d="M176.666,649a.989.989,0,0,1-1-.939c-.276-5.812-3.556-7.612-6.727-8.613a11.945,11.945,0,0,1-4.543-2.509,1,1,0,0,1,1.4-1.421h0a10.171,10.171,0,0,0,3.741,2.029c3.324,1.049,7.783,3.259,8.124,10.42a.974.974,0,0,1-.952,1.033Z" transform="translate(-145.666 -607)" fill="#fff"/>
  <path id="Path_72" data-name="Path 72" d="M177,628a1,1,0,0,1-1-1v-6h-2a3,3,0,0,1-3-3v-8a3,3,0,0,1,3-3h13a3,3,0,0,1,3,3v8a3,3,0,0,1-3,3h-1.624l-7.717,6.752A1,1,0,0,1,177,628Zm-3-19a1,1,0,0,0-1,1v8a1,1,0,0,0,1,1h3a1,1,0,0,1,1,1v4.8l6.341-5.548A1,1,0,0,1,185,619h2a1,1,0,0,0,1-1v-8a1,1,0,0,0-1-1Z" transform="translate(-145.666 -607)" fill="#fff"/>
  <path id="Path_73" data-name="Path 73" d="M184,614h-7a1,1,0,0,1,0-2h7a1,1,0,0,1,0,2Z" transform="translate(-145.666 -607)" fill="#fff"/>
  <path id="Path_74" data-name="Path 74" d="M179,617h-2a1,1,0,0,1,0-2h2a1,1,0,0,1,0,2Z" transform="translate(-145.666 -607)" fill="#fff"/>
</svg>
